<?xml version="1.0" encoding="UTF-8"?>
<svg id="Layer_1" data-name="Layer 1" xmlns="http://www.w3.org/2000/svg" viewBox="0 0 2500 1021.67">
  <defs>
    <style>
      .cls-1 {
        fill: #fff;
      }
    </style>
  </defs>
  <rect class="cls-1" x="1383.75" y="420.42" width="47.44" height="190.56"/>
  <polygon class="cls-1" points="907.13 672.27 955.34 672.27 955.34 784.74 1076.76 784.74 1076.76 672.27 1124.95 672.27 1124.95 937.55 1076.76 937.55 1076.76 826.19 955.34 826.19 955.34 937.55 907.13 937.55 907.13 672.27"/>
  <rect class="cls-1" x="1481.13" y="345.69" width="47.06" height="265.3"/>
  <path class="cls-1" d="M371.84,31.55C179.02,31.55,22.19,233.88,22.19,482.55s156.83,451.01,349.65,451.01,349.65-202.32,349.65-451.01S564.62,31.55,371.84,31.55M371.84,955.71C166.81,955.71,0,743.47,0,482.55S166.81,9.39,371.84,9.39s371.83,212.25,371.83,473.16-166.79,473.17-371.83,473.17"/>
  <path class="cls-1" d="M481.06,159.2v1.74c-8.69,3.47-18.24,6.08-27.78,8.67-2.59,0-6.06.89-6.06,3.49v1.74c13.06,8.67,26.92,19.97,40.79,26.91,0-11.31-.87-23.46-.87-35.59l1.77-.91c30.39,16.52,57.29,33.89,87.72,51.28v2.63c-14.77,6.04-30.43,10.39-43.47,18.21-29.49-14.76-58.12-34.73-85.06-53.86-20.85-15.66-43.43-32.13-63.43-49.51-.85-2.57,1.78-4.33,2.65-6.04,0-14.78,2.59-28.68,3.46-43.47l5.22,2.6,85.08,72.11Z"/>
  <path class="cls-1" d="M499.3,133.15c26.04,22.58,46.04,44.32,70.36,70.35-44.32-21.72-86.82-46.89-124.2-82.53-13.9-12.15-27.77-23.43-41.69-36.46h2.6l92.92,48.65Z"/>
  <path class="cls-1" d="M379.48,147.07c44.27,34.7,90.3,71.21,138.08,98.11,1.73,1.74,3.46,5.19.86,7.82-3.5,2.6-7.83-.85-11.29-1.71-45.17-27.83-92.05-59.1-132.89-92.94-2.57-2.63-2.57-6.96-1.72-9.56,1.72-1.71,4.32-1.71,6.96-1.71"/>
  <path class="cls-1" d="M408.97,261.68c-12.11-3.45-25.17-9.53-31.28-19.09-.85-1.74-.85-5.22,1.79-6.08,12.98,12.15,30.4,19.97,48.63,18.23,1.74,1.74,5.19,2.63,3.45,5.23-2.58,1.71-6.95.88-9.5,3.42,6.92,13.9,23.4,18.3,37.31,22.6.91,2.6-1.72,2.6-3.47,3.49-19.11-1.74-38.2-9.53-46.92-27.79M441.17,258.22c13.84,5.16,28.6,13.01,43.37,8.67,4.36,0,6.96.89,6.96,4.35s-1.74,5.25-4.37,6.04c-19.04,2.66-32.12-8.65-46.88-16.43l.92-2.63ZM609.61,490.14c-1.74-38.21-39.94-50.39-60.82-73.85-6.03-4.37-10.39,2.63-15.65,1.74-10.4-5.22,5.26-6.11,5.26-12.15-8.7-11.27-7.83-26.91-16.5-38.22-5.2-3.45-8.69,2.6-13.92,0-3.45-18.23-8.69-36.46-17.33-52.1-19.1-13.07-19.98,19.09-37.37,18.21,0-.83-1.74-.83-.86-2.57,0-2.63,4.31-3.51,6.06-5.23,4.32-3.47,4.32-11.27,4.32-16.49-3.44-5.25-9.53-5.25-15.59-6.08-3.46,0-4.35-3.49-3.46-6.99,5.17-7.82,14.73-.83,22.56-.83,8.7-6.11,17.37-3.49,26.04-6.99,6.95-2.6,8.7-8.65,7.81-15.58,2.61-.88,6.09,1.71,7.83-1.77,0-4.35-.87-9.56-3.45-13.01-28.67-15.64-51.26-42.55-84.25-52.14-5.21-2.6-16.51,1.77-14.77-7.82-3.47-9.53-15.63-10.41-24.29-13.01-1.74-2.59-.92-6.1,1.73-6.96.85-1.72.85-3.45-.88-5.19-10.4-2.6-14.77-15.64-19.99-24.32-6.08-4.36-13.88-6.96-21.7-6.08-17.39,0-18.21,22.55-27.82,32.14-2.55,6.93-11.27,11.29-11.27,20.82,4.36,13.05,21.7,13.9,33.86,17.38,5.24-.86,12.19,1.72,14.8-3.49.87-3.47-1.74-3.47-3.5-3.47-4.36-1.74-5.17-6.05-4.36-10.42,2.64-3.47,6.99-4.33,11.37-4.33,6.92,6.08,12.1-3.47,19.9-.88,6.95.88,9.6,8.7,11.28,14.78-7.8-1.74-16.45-5.19-25.19-3.47-2.57,4.33,0,8.7,1.74,12.15,5.23-.86,12.16-1.72,18.29-2.57,3.47,0,6.95,1.71,7.82,5.19,17.36,3.45,37.32,2.63,50.32,13.9,0,5.22,7.84,10.41,2.64,14.75-16.51-16.49-41.67-19.09-64.26-14.75-4.32-2.6.85-7.82-2.64-10.45-14.77,2.63-26.92,7.84-40.81,13.93l-1.74-.89c.88-2.59,0-4.33.88-6.04-3.46-1.78-6.08-4.37-10.4-4.37-6.06,10.41,4.32,20.89,3.44,31.28,4.37,11.27,10.41-3.52,17.36-1.74,5.24,0,13.05-4.37,16.51,1.74-6.9,3.47-13.87,4.33-19.95,9.5-1.72,2.66.87,4.4,1.73,6.11,6.07,7.79,18.22,2.63,26.05,6.99,0,1.71-.87,3.45-2.59,5.19-10.38.85-15.64,9.55-20.87,16.49-5.16-1.77-3.45-7.82-4.32-11.33-.84-4.31-6.1-4.31-8.66-4.31-2.64,11.33-7,20.87-7.82,31.28,1.7,6.94,9.52,4.33,13.87,5.19,6.92,1.74,2.6,10.45,5.23,14.76,6.05,1.73,13.86,1.73,20.81,0,.88.88,1.75,2.59.88,5.22-2.58,4.37-6.96,5.22-11.27,6.11-1.75,1.71-5.25,4.33-3.5,7.79,11.26,6.08-.87,22.6,10.4,28.65,11.28,6.1,27.84,3.47,38.27-1.72,6.91-1.77,11.27-9.55,19.95-6.93.88,1.71,2.61.85,2.61,3.45,17.36.88,33.86-1.74,49.48-4.31,6.11.86,12.15-4.37,15.64.86,0,.85.89,1.71,0,2.59-21.74,8.65-47.76,7.82-71.21,11.31-14.76,4.33-7.82,19.94-9.56,32.13-8.66,4.31-6.05-8.68-11.32-12.19-22.59.86-41.65,8.68-62.47,13.93-13.08,6.96-19.11,21.68-22.61,35.58,0,7.82-3.5,18.24,4.33,21.75,16.51,5.22,42.56,8.67,57.28-3.51,12.23-4.31,23.47-15.62,37.4-10.42,6.95-11.29,18.23-23.43,31.23-30.42,5.25-1.74,5.25-7.76,11.3-8.65,5.22.88,2.61,7.82,4.36,10.42,12.18,1.71,23.47-3.52,35.62-1.78,6.95,2.66,7.8,9.56,10.4,15.64,0,2.66-.85,6.11-1.73,7.84,4.38,8.66-5.22,13.05-1.72,22.58-14.79,22.6-35.58,41.69-63.41,46.89-6.06,2.6-1.74,11.31-6.06,15.64-30.4,19.97-76.43,29.54-86,71.23-6.08,21.74,13.08,30.4,26.05,39.07,17.38,3.49,26.04,26.09,46.04,20.86,8.69-21.72,10.43-46.03,19.1-67.74,25.17-44.28,54.74-85.98,93.77-118.08,13.07-9.56,26.12-22.61,44.33-22.61,2.59,0,.87,2.6.87,3.46-16.54,5.22-30.39,16.52-41.71,26.91-9.54,10.47-22.59,20.88-28.67,34.75-21.7,26.91-44.27,59.07-58.18,90.34-.8,10.39-2.6,21.69-.8,32.11,3.45,0,4.29-4.31,6.91-6.02,13.87-30.45,29.51-60.82,46.88-88.63,10.43-13.9,19.08-32.13,34.74-39.07l.87.85c-19.98,26.06-36.45,54.74-50.39,85.12-10.41,23.44-23.46,46.06-25.18,72.97,2.64,6.94,12.19,4.31,16.54,9.53,4.31,2.6,5.19,7.82,4.31,12.17-.85,3.47-4.31,6.96-7.77,6.96-7-1.72-6.13-9.56-10.44-13.9-2.64,0-5.23-2.63-6.97,0-.86,10.41,9.6,20,.86,29.54-7.78,5.19-6.08-6.97-11.28-10.45-2.64-1.74-7.82-1.74-10.4,0-25.2,23.48-60.86,36.5-96.41,40.83-11.28,5.23-34.76-3.45-34.76,15.67,1.74,17.31-.87,38.18,13.02,48.59,35.61,3.49,72.09,3.49,105.1-6.08,25.17-5.23,49.5-13.9,70.32-26.03,34.77-26.93,52.14-70.37,74.71-107.72,36.45-52.1,62.54-117.29,47.76-186.72"/>
  <path class="cls-1" d="M546.18,266.9c0,19.09-.85,39.98-17.35,51.25-10.42,4.33-21.71.85-29.53-5.23v-3.45c6.09,1.74,15.62,4.33,21.71-.88,0-2.59,0-5.19-3.45-5.19-7.82,3.49-14.8-1.74-22.6-2.59-.85-1.78-.85-2.63-.85-5.23,4.32-1.71,10.42-1.71,13-7.84-2.58-11.25,13.05-11.25,12.16-21.69,3.45-4.36,9.55-8.67,16.5-6.08,5.18,0,8.72,2.6,10.4,6.94"/>
  <path class="cls-1" d="M289.14,396.34c-3.47.86-3.47-3.51-5.24-5.22,1.77-3.49,7.85-.86,11.3-1.77,2.61,4.36-3.45,5.24-6.06,6.98M291.76,412.8c-.84,2.6-4.37,4.37-7.85,3.49-3.43-1.74-6.94-5.19-11.25-4.37v-3.43c6.95,4.31,10.41-4.36,16.49-2.63,1.78-.85,4.34-2.59,6.06-.85,0,2.57-3.45,4.33-3.45,7.79M262.22,358.08l-5.22,1.77c-.88-3.45,2.61-2.59,3.49-5.22,6.97,0,17.38-2.6,19.11,6.93.87,4.35,1.7,9.6-3.5,11.34h-21.71c-.84-7.82,13.9-6.99,7.83-14.81M240.51,348.57c-1.75,5.19-.89,12.15-6.08,14.72-3.42-1.74-8.67-5.22-9.57.92l-.87,18.21c-1.71.88-5.2.88-6.04-1.72-1.79-12.18.84-26.07,7.82-33.89,3.44,3.47,8.67,1.77,9.53-2.6,2.63-4.33,6.11-13.86,13.04-14.75.87,4.3,6.91,5.18,9.53,2.59l2.64.88c0,5.19-3.49,8.68-7.83,11.27-5.22.88-9.56-3.45-12.15,4.37M281.3,329.45c6.09-6.97,4.37-17.38,9.62-24.34,3.42-.88,5.2.88,6.03,3.47l-.83,11.27c-11.32-1.71-5.2,21.75-20.02,15.64l-3.45-4.31c1.74-4.36,6.05,0,8.64-1.73M195.33,358.08c-6.08-1.69-1.75-10.39-6.08-13.87-8.67,5.23-2.59,19.09-11.28,25.17-1.73,0-3.49-.85-4.32-3.47,7.81-9.51,2.59-26.03,11.32-36.44,6.91-1.78,6.91,10.41,13.85,4.3,1.73,6.99,1.73,18.27-3.49,24.32M305.64,367.66c-4.36-2.59-8.69,2.59-11.3,0,.87-6.94,4.36-13.9,11.3-16.52,3.5-6.94.88-18.21-4.36-24.31.88-1.72,3.49-2.6,5.24-2.6,3.49-11.29,4.36-26.97-6.09-34.75-5.23-1.74-10.41-6.05-15.63-4.35,0,0-.91,0-.91-.85-4.3-.86-11.25-2.6-15.61,0-8.67-6.99-19.96-5.22-29.53-8.68-17.35-4.37-31.22,6.08-43.43,13.87-31.25,13.92-19.09,52.14-36.46,74.74-2.63,14.76-2.63,32.99,8.69,43.38,9.58-.86,16.5,7.82,26.01,5.22,14.78-6.94-6.91-15.61-.81-26.03,8.64-.88,6.05,10.42,12.16,12.99,6.04,1.77,7.8-5.17,13.02-6.05,7.82,4.35,3.46,14.78,8.67,20.83,11.3,16.52,31.24,22.58,52.1,24.34,14.78-.88,21.73-11.27,28.67-23.48,4.33-14.76,10.41-35.59-1.74-47.75"/>
  <path class="cls-1" d="M239.61,445.85c6.99,6.08,25.22-1.77,23.46,13.01,10.44,6.9,20.83,13.04,31.26,19.11l32.19,26.03h4.28c2.65-3.47-6.94-8.7,0-10.39,24.33,4.31,44.32-12.18,65.16-20,6.08-1.72,10.42,2.65,13,6.93,6.96,16.52,9.56,34.73,9.56,53-7.83,4.33-13.87,9.56-23.41,11.27-9.61-6.05-18.27,2.63-26.13,6.13-24.27,14.72-52.91,31.22-83.33,16.47-26.05,17.35-46.05-14.78-71.2-16.47-3.51,2.57-4.36,7.76-3.51,12.13,4.38,2.59,11.32,1.71,16.51,4.33,13.92,7.82,23.43,25.17,44.3,22.6,0,.86.88.86,1.74.86v2.63c-8.68,5.19-20.85,13.86-23.46,23.43,1.75,3.49,6.06,2.6,8.69.86,15.65-7.82,27.79-22.6,46.02-23.46,7.78,7.84-7.82,14.81-3.49,24.31,9.6,8.71,14.8,21.75,10.43,33.88-6.08,7.82-17.38,10.45-19.96,20-.84,3.46.87,7.85,5.19,9.54,14.77,0,16.52-27.77,36.5-18.21,15.63,6.96,34.74,4.3,46.86,18.21,6.12,8.7,10.46,20.03,14.81,29.53-2.66,6.97-13.05,8.7-19.12,11.31-30.38,13.04-65.12,15.64-95.52,26.93-28.66,1.72-52.13-19.11-79.07-4.33-16.44,2.6-33.84-4.33-46.86-13.01-13.06-9.59-6.97-30.39-21.76-39.1-22.55-57.32,2.65-116.42,13.07-171.13,13.01-23.45,6.96-57.3,33.01-72.96,11.26-5.19,19.95-14.76,26.06-24.29,12.14-.88,14.78,13.9,26.09,15.64l8.6,5.22Z"/>
  <path class="cls-1" d="M486.31,445.85c-1.77,4.28,1.7,6.08,2.59,8.68-.89,7.81-.89,16.49-4.36,23.45-11.25,13.84-28.65,26.89-48.63,27.79-11.29-1.77-14.76-14.8-19.98-22.57,1.78-14.81,7.82-31.28,23.45-36.5,4.38-3.51,7.84,1.73,13.06,0,11.29,0,19.94-6.97,31.25-4.37l2.63,3.51Z"/>
  <path class="cls-1" d="M277.88,777.62c7.78,8.68,7.78,23.46,4.31,34.75-18.22,6.96-38.19,12.13-58.19,13.9-8.64,0-18.25,0-23.46-6.1-1.72-8.68-13.88-6.96-13.88-17.38-1.7-4.33-8.68-3.45-9.52-7.82,2.55-6.9-4.36-10.39-6.11-15.64.85-13.84,19.1-12.15,28.7-16.47,11.25-15.64,32.08-5.22,46.88-2.59,11.26,5.22,22.56,10.39,31.28,17.35"/>
  <path class="cls-1" d="M553.17,831.47c-6.99,6.11-13.02,13.04-20.83,16.52-13.05-13.07-27.8-27.82-35.64-44.32,0-2.59,0-5.22,3.46-6.11,24.35-1.71,39.99,17.42,53.01,33.91"/>
  <path class="cls-1" d="M454.14,841.03c5.24,13.87,7.82,27.79,13.07,41.69-6.12,6.08-17.39,6.96-26.04,11.27-74.75,22.58-165.92,8.7-224.11-36.47,2.64-6.08,5.22-13,12.14-14.75,10.41-.88,19.99,5.22,30.42,6.08,0,0,13.04,2.59,19.09,0,8.69,0,14.78-6.96,22.59-9.56,12.18-1.71,26.06-1.71,38.23-2.63,20.85,9.59,62.44,4.04,66.86,2.63,4.4-1.38,24.31-12.18,37.36-16.49,10.39,0,6.06,12.12,10.39,18.23"/>
  <path class="cls-1" d="M500.16,828.84c9.58,9.56,18.26,13.92,22.59,26.05-1.73,3.51-6.04,6.13-10.39,7.85-6.96-3.49-10.42-14.76-18.24-13.05-2.61,7.82,6.94,12.19,5.18,20.83-6.06,3.51-13.86,6.99-20.84,7.84-7.78-12.18-11.26-26.05-13.91-39.97,1.77-16.5,21.76-3.49,30.42-11.31l5.19,1.74Z"/>
  <path class="cls-1" d="M1006.88,242.94c24.68,0,38.49-16.07,38.49-38.5s-14.19-38.12-38.49-38.12h-51.54v76.61h51.54ZM1002.03,127.47c20.91,0,32.87-14.95,32.87-33.98s-11.21-32.9-33.62-32.9h-45.95v66.88h46.7ZM907.13,19.12h94.9c47.82,0,81.83,24.65,81.83,68.38,0,24.67-11.97,45.96-32.14,56.78v.76c29.14,8.6,42.96,35.5,42.96,62.41,0,53.05-42.59,76.98-91.54,76.98h-96.02V19.12Z"/>
  <path class="cls-1" d="M1221.62,248.54c30.65,0,56.42-23.91,56.42-59.4s-25.76-59.44-56.42-59.44-56.79,24.3-56.79,59.44,25.8,59.4,56.79,59.4M1221.25,89.36c58.28,0,104.99,41.49,104.99,99.78s-46.71,99.77-104.62,99.77-104.98-41.11-104.98-99.77,46.72-99.78,104.61-99.78"/>
  <path class="cls-1" d="M1362.19,227.62s20.92,20.91,51.93,20.91c13.45,0,25.04-5.99,25.04-17.17,0-28.4-92.66-24.67-92.66-85.96,0-35.49,31.75-56.04,72.87-56.04s63.86,21.67,63.86,21.67l-17.56,35.13s-17.55-16.45-46.69-16.45c-12.33,0-24.28,5.22-24.28,17.19,0,26.91,92.64,23.55,92.64,84.83,0,31.74-27.64,57.18-72.85,57.18-47.46,0-73.98-28.04-73.98-28.04l21.68-33.25Z"/>
  <path class="cls-1" d="M1529.91,134.58h-24.64v-37.75h25.76v-54.92h46.32v54.92h43.33v37.75h-43.33v73.97c0,31.4,24.68,35.87,37.74,35.87,5.25,0,8.6-.74,8.6-.74v41.46s-5.59,1.13-14.57,1.13c-26.53,0-79.21-7.84-79.21-71.75v-79.95Z"/>
  <path class="cls-1" d="M1745.57,248.54c30.64,0,56.42-23.91,56.42-59.4s-25.78-59.44-56.42-59.44-56.79,24.3-56.79,59.44,25.76,59.4,56.79,59.4M1745.18,89.36c58.3,0,105.01,41.49,105.01,99.78s-46.71,99.77-104.61,99.77-104.98-41.11-104.98-99.77,46.7-99.78,104.59-99.78"/>
  <path class="cls-1" d="M1878.32,93.85h45.57v22.06c0,7.1-.77,13.08-.77,13.08h.77c8.21-16.08,29.14-39.63,67.6-39.63,42.23,0,66.15,22.06,66.15,72.5v122.57h-47.07v-112.85c0-23.18-5.99-38.86-30.28-38.86s-44.08,16.06-51.16,38.86c-2.64,7.84-3.37,16.44-3.37,25.39v87.46h-47.43V93.85Z"/>
  <path class="cls-1" d="M1020.28,341.2c64.62,0,97.89,36.25,97.89,36.25l-23.17,35.87s-30.26-28.04-72.47-28.04c-56.04,0-88.92,41.85-88.92,91.19s33.99,94.88,89.29,94.88c45.95,0,76.98-33.61,76.98-33.61l25.38,34.75s-36.59,42.97-104.22,42.97c-81.06,0-137.12-60.15-137.12-138.26s58.28-136.01,136.37-136.01"/>
  <path class="cls-1" d="M1158.49,345.69h47.43v91.92c0,9.34-.74,16.08-.74,16.08h.74c9.36-18.33,32.52-37.75,65.76-37.75,42.22,0,66.13,22.02,66.13,72.5v122.55h-47.08v-112.85c0-23.17-5.99-38.83-30.25-38.83s-44.46,16.42-51.57,39.57c-2.23,7.47-2.99,15.71-2.99,24.68v87.42h-47.43v-265.29Z"/>
  <rect class="cls-1" x="2208.17" y="671.57" width="47.07" height="265.29"/>
  <path class="cls-1" d="M1885.05,787.74h-24.67v-37.74h25.8v-54.94h46.31v54.94h43.35v37.74h-43.35v73.98c0,31.38,24.67,35.85,37.73,35.85,5.24,0,8.61-.72,8.61-.72v41.45s-5.6,1.13-14.57,1.13c-26.52,0-79.21-7.85-79.21-71.73v-79.96Z"/>
  <path class="cls-1" d="M2078.49,905.04c25.02,0,42.94-26.89,42.94-50.05v-4.49h-8.21c-24.27,0-63.5,3.36-63.5,29.89,0,12.71,9.35,24.66,28.77,24.66M2114.71,818h6.36v-2.64c0-25.02-15.71-33.6-36.6-33.6-27.28,0-52.3,18.28-52.3,18.28l-17.96-33.98s29.52-23.54,74.74-23.54c50.06,0,79.21,27.65,79.21,75.86v119.19h-43.72v-15.7c0-7.47.76-13.46.76-13.46h-.76c.36,0-14.57,33.62-57.9,33.62-34,0-64.64-21.3-64.64-59.4,0-60.53,81.83-64.63,112.82-64.63"/>
  <rect class="cls-1" x="1780.83" y="746.98" width="47.44" height="190.57"/>
  <path class="cls-1" d="M1656.27,575.48c24.66,0,47.81-17.94,47.81-60.15,0-29.53-15.67-58.67-47.43-58.67-26.15,0-47.83,21.3-47.83,59.03s19.43,59.79,47.46,59.79M1647.3,415.93c41.87,0,54.91,24.27,54.91,24.27h.75s-.36-4.84-.36-10.84v-83.68h47.46v265.29h-44.84v-15.7c0-7.1.75-12.31.75-12.31h-.75s-16.04,32.5-59.77,32.5c-51.56,0-84.45-40.73-84.45-99.78s35.87-99.76,86.3-99.76"/>
  <path class="cls-1" d="M1794.58,420.42h45.57v32.88c0,7.12-.75,13.47-.75,13.47h.75c8.61-27.27,31.39-48.97,60.53-48.97,4.48,0,8.61.76,8.61.76v46.7s-4.88-.74-11.21-.74c-20.17,0-42.96,11.58-51.94,39.97-2.99,9.35-4.12,19.79-4.12,31.04v75.45h-47.43v-190.56Z"/>
  <path class="cls-1" d="M2053.56,492.16c-.75-25.79-16.8-39.62-37.72-39.62-24.28,0-41.11,14.95-45.59,39.62h83.31ZM2016.96,415.93c54.91,0,84.43,39.98,84.43,90.42,0,5.62-1.12,18.31-1.12,18.31h-131.51c2.98,33.25,28.76,50.45,57.16,50.45,30.62,0,54.9-20.92,54.9-20.92l18.32,34s-29.15,27.28-76.58,27.28c-63.14,0-102.39-45.6-102.39-99.78,0-58.64,39.99-99.76,96.78-99.76"/>
  <path class="cls-1" d="M2136.86,420.42h45.59v22.06c0,7.08-.75,13.08-.75,13.08h.75c8.22-16.07,29.14-39.62,67.61-39.62,42.22,0,66.14,22.02,66.14,72.5v122.55h-47.08v-112.85c0-23.17-5.99-38.83-30.27-38.83s-44.07,16.05-51.17,38.83c-2.61,7.88-3.38,16.45-3.38,25.43v87.42h-47.43v-190.56Z"/>
  <path class="cls-1" d="M2374.5,554.19s20.92,20.91,51.91,20.91c13.46,0,25.04-5.98,25.04-17.2,0-28.36-92.66-24.64-92.66-85.93,0-35.48,31.76-56.04,72.87-56.04s63.87,21.67,63.87,21.67l-17.56,35.12s-17.55-16.44-46.7-16.44c-12.32,0-24.26,5.26-24.26,17.19,0,26.9,92.64,23.54,92.64,84.82,0,31.78-27.64,57.18-72.86,57.18-47.43,0-73.97-28.03-73.97-28.03l21.67-33.25Z"/>
  <path class="cls-1" d="M1264.28,901.7c30.62,0,56.41-23.93,56.41-59.42s-25.79-59.4-56.41-59.4-56.78,24.29-56.78,59.4,25.76,59.42,56.78,59.42M1263.9,742.51c58.28,0,104.99,41.48,104.99,99.77s-46.71,99.75-104.61,99.75-104.98-41.08-104.98-99.75,46.7-99.77,104.6-99.77"/>
  <path class="cls-1" d="M1404.83,880.77s20.92,20.94,51.93,20.94c13.43,0,25.04-5.98,25.04-17.22,0-28.37-92.66-24.64-92.66-85.92,0-35.5,31.76-56.05,72.86-56.05s63.89,21.67,63.89,21.67l-17.56,35.1s-17.55-16.41-46.71-16.41c-12.31,0-24.29,5.23-24.29,17.17,0,26.9,92.67,23.54,92.67,84.83,0,31.77-27.64,57.15-72.85,57.15-47.44,0-73.98-28.01-73.98-28.01l21.67-33.25Z"/>
  <path class="cls-1" d="M1653.73,902.06c26.15,0,47.81-21.3,47.81-59.04s-19.43-59.79-47.45-59.79c-24.64,0-47.8,17.93-47.8,60.15,0,29.54,16.04,58.68,47.43,58.68M1560.32,746.98h43.34v13.85c0,7.08-.75,13.07-.75,13.07h.75s16.44-31.39,61.28-31.39c51.54,0,84.43,40.73,84.43,99.77s-36.99,99.75-87.05,99.75c-37.75,0-54.56-26.13-54.56-26.13h-.74s.74,6.72.74,16.42v79.96h-47.44v-265.3Z"/>
  <path class="cls-1" d="M2377.46,369.98c0-13.49-10.92-24.44-24.43-24.44s-24.42,10.95-24.42,24.44c0,12.58,9.55,22.83,21.78,24.16-4.33,3.29-10.22,6.31-18.41,8.58l4.29,15.5c38.27-10.6,41.75-35.83,41.13-47.7.01-.18.06-.35.06-.54"/>
  <path class="cls-1" d="M1831.13,696.71c0,14.68-11.92,26.59-26.61,26.59s-26.57-11.92-26.57-26.59,11.9-26.59,26.57-26.59,26.61,11.91,26.61,26.59"/>
  <path class="cls-1" d="M1434.06,369.99c0,14.67-11.92,26.58-26.61,26.58s-26.58-11.92-26.58-26.58,11.91-26.62,26.58-26.62,26.61,11.93,26.61,26.62"/>
</svg>